<svg width="537" height="477" viewBox="0 0 537 477" fill="none" xmlns="http://www.w3.org/2000/svg">
<path opacity="0.1" d="M429.84 9.2398C496.517 22.154 525.974 106.197 527.775 111.573C556.209 196.356 513.38 304.271 445.829 334.534C350.215 377.366 260.321 239.865 124.703 286.418C91.0983 297.952 64.063 317.576 38.0944 304.037C4.03223 286.274 -12.3437 219.665 10.7789 180.696C38.7191 133.607 101.112 166.039 206.65 128.515C334.141 83.1935 357.385 -4.77755 429.84 9.2398Z" fill="#DAAA55"/>
<path opacity="0.1" d="M480.031 203.088V264.856" stroke="#DAAA55" stroke-width="5.05618" stroke-linecap="round" stroke-linejoin="round"/>
<path opacity="0.1" d="M490.227 255.283H404.373" stroke="#DAAA55" stroke-width="5.05618" stroke-linecap="round" stroke-linejoin="round"/>
<g opacity="0.1">
<path opacity="0.1" d="M129.391 169.143V233.97" stroke="#DAAA55" stroke-width="5.05618" stroke-linecap="round" stroke-linejoin="round"/>
<path opacity="0.1" d="M140.09 223.924H49.9857" stroke="#DAAA55" stroke-width="5.05618" stroke-linecap="round" stroke-linejoin="round"/>
<path opacity="0.1" d="M102.493 192.016H114.301V223.923H102.493V192.016Z" fill="#DAAA55"/>
<path opacity="0.1" d="M81.9888 167.221H93.7969V223.924H81.9888V167.221Z" fill="#DAAA55"/>
<path opacity="0.1" d="M60.8599 176.387H72.668V223.924H60.8599V176.387Z" fill="#DAAA55"/>
</g>
<g opacity="0.1">
<path opacity="0.1" d="M480.031 255.284L461.422 228.977L447.301 233.972L432.308 209.499L409.753 209.441" stroke="#DAAA55" stroke-width="5.05618" stroke-linecap="round" stroke-linejoin="round"/>
<path opacity="0.1" d="M404.373 209.429L411.946 212.544L410.154 209.441L411.961 206.352L404.373 209.429Z" fill="#DAAA55"/>
</g>
<path opacity="0.1" d="M143.823 70.4007C128.932 70.4007 116.861 58.3294 116.861 43.4386C116.861 28.5479 128.932 16.4766 143.823 16.4766C158.714 16.4766 170.785 28.5479 170.785 43.4386C170.785 58.3294 158.714 70.4007 143.823 70.4007Z" fill="#DAAA55"/>
<path opacity="0.1" d="M143.822 58.7306C135.377 58.7306 128.531 51.8846 128.531 43.4395C128.531 34.9945 135.377 28.1484 143.822 28.1484C152.267 28.1484 159.113 34.9945 159.113 43.4395C159.113 51.8846 152.267 58.7306 143.822 58.7306Z" fill="#BA8F4A"/>
<path opacity="0.1" d="M143.821 50.2735C140.046 50.2735 136.986 47.2134 136.986 43.4385C136.986 39.6636 140.046 36.6035 143.821 36.6035C147.596 36.6035 150.656 39.6636 150.656 43.4385C150.656 47.2134 147.596 50.2735 143.821 50.2735Z" fill="#DAAA55"/>
<path d="M143.821 43.4395H188.098" stroke="#DAAA55" stroke-width="5.05618" stroke-linecap="round" stroke-linejoin="round"/>
<path d="M187.478 44.1952L191.177 50.6005H192.908L189.212 44.1952H190.943L194.642 50.6005H196.379L192.677 44.1952H194.411L198.11 50.6005H199.844L196.144 44.1952H197.918V42.6838H196.144L199.844 36.2754H198.11L194.411 42.6838H192.677L196.379 36.2754H194.642L190.943 42.6838H189.212L192.908 36.2754H191.177L187.478 42.6838V44.1952Z" fill="#DAAA55"/>
<path opacity="0.1" d="M378.885 89.9034C361.669 89.9034 347.712 75.9466 347.712 58.73C347.712 41.5134 361.669 27.5566 378.885 27.5566C396.102 27.5566 410.059 41.5134 410.059 58.73C410.059 75.9466 396.102 89.9034 378.885 89.9034Z" fill="#DAAA55"/>
<path d="M378.885 58.73H347.712C347.712 41.6288 361.784 27.5566 378.885 27.5566C385.557 27.5522 392.054 29.6884 397.422 33.6511L378.885 58.73Z" fill="#DAAA55"/>
<path opacity="0.1" d="M373.504 68.6426L360.617 99.5508H329.105" stroke="#DAAA55" stroke-width="5.05618" stroke-linecap="round" stroke-linejoin="round"/>
<path d="M324.579 97.6406H330.016V101.096H324.579V97.6406Z" fill="#DAAA55"/>
<path opacity="0.1" d="M373.505 41.6348L386.395 10.7266H417.906" stroke="#DAAA55" stroke-width="5.05618" stroke-linecap="round" stroke-linejoin="round"/>
<path d="M422.436 12.6367H417V9.18113H422.436V12.6367Z" fill="#DAAA55"/>
<path d="M153.151 445.875H243.453" stroke="#1F497D" stroke-width="5.05618" stroke-linecap="round" stroke-linejoin="round"/>
<path d="M146.758 445.521H136.988" stroke="#1F497D" stroke-width="5.05618" stroke-linecap="round" stroke-linejoin="round"/>
<path d="M329.65 307.422C329.915 307.629 334.144 311.112 334.144 319.839C334.144 328.85 332.127 345.162 353.409 351.997C370.023 357.333 372.244 363.805 372.424 366.389C372.458 366.77 372.438 367.154 372.363 367.529C372.576 366.922 389.888 313.906 329.65 307.422Z" fill="#0087DB"/>
<path d="M214.989 362.074H245.629C245.629 362.074 244.949 426.389 234.074 445.965H195.901C185.025 426.389 184.346 362.074 184.346 362.074H214.989Z" fill="#1F497D"/>
<path d="M206.509 389.699C202.477 354.799 215.955 321.16 241.619 304.879C277.933 281.845 336.27 295.061 365.898 343.405" stroke="#1F497D" stroke-width="5.05618" stroke-linecap="round" stroke-linejoin="round"/>
<path d="M218.008 390.321C218.923 385.034 226.626 335.742 193.152 304.569C181.81 294.007 169.329 288.863 160.217 286.236" stroke="#1F497D" stroke-width="5.05618" stroke-linecap="round" stroke-linejoin="round"/>
<path d="M226.709 386.283C235.772 349.734 229.168 329.805 220.803 318.238C210.845 304.461 198.421 302.584 188.503 286.547C178.023 269.619 178.511 250.135 180.735 235.904" stroke="#1F497D" stroke-width="5.05618" stroke-linecap="round" stroke-linejoin="round"/>
<path d="M199.366 375.097C202.91 348.967 223.211 328.383 248.457 324.763C275.766 320.85 302.847 337.652 311.84 364.843" stroke="#1F497D" stroke-width="5.05618" stroke-linecap="round" stroke-linejoin="round"/>
<path d="M288.339 351.186C295.484 356.159 313.548 368.896 315.413 376.895C315.413 376.895 321.426 321.048 286.318 332.856C281.948 334.34 281.196 346.222 288.339 351.186Z" fill="#0087DB"/>
<path d="M174.695 265.168C175.35 271.872 179.875 279.094 184.785 279.49C186.823 279.654 188.932 278.63 190.849 275.891C197.373 266.573 194.112 251.345 187.743 244.977C181.466 238.702 183.477 228.808 183.547 228.521C175.628 237.215 173.76 255.697 174.695 265.168Z" fill="#0087DB"/>
<path d="M136.601 249.574C137.068 297.721 174.473 291.736 174.473 291.736C174.473 291.736 174.473 267.129 152.292 262.482C145.643 261.087 140.407 254.959 138.009 251.68C137.098 250.412 136.601 249.574 136.601 249.574Z" fill="#0087DB"/>
<path d="M146.021 309.663C151.616 304.227 163.576 308.423 168.235 300.966C172.694 293.83 178.861 294.235 179.385 294.281H179.422C151.146 276.573 146.021 309.663 146.021 309.663Z" fill="#0087DB"/>
<path d="M145.925 353.349C145.925 353.349 154.061 358.804 158.973 361.427C172.646 368.741 192.371 356.415 192.371 356.415C192.371 356.415 177.97 335.306 148.579 351.783C147.708 352.27 146.823 352.793 145.925 353.349Z" fill="#0087DB"/>
<path d="M211.793 392.654C213.316 364.314 206.003 352.838 199.052 347.6C191.934 342.237 184.425 342.816 179.48 335.795" stroke="#1F497D" stroke-width="5.05618" stroke-linecap="round" stroke-linejoin="round"/>
<path d="M172.653 331.218C173.915 339.875 187.249 343.321 192.186 344.303C193.319 344.528 194.014 344.626 194.014 344.626C201.632 336.026 190.053 325.852 184.455 322.588C178.857 319.324 179.643 306.133 179.643 306.133L179.464 306.224C173.299 309.418 171.105 320.671 172.653 331.218Z" fill="#0087DB"/>
<path d="M148.579 351.783C157.37 348.507 172.911 345.972 192.371 356.415C192.371 356.415 177.97 335.297 148.579 351.783Z" fill="#1F497D"/>
<path d="M212.723 381.312C211.653 378.441 204.553 360.347 184.45 352.418C165.481 344.937 148.907 352.012 145.924 353.35" stroke="#1F497D" stroke-width="5.05618" stroke-linecap="round" stroke-linejoin="round"/>
<path d="M179.48 335.795C182.527 340.009 187.437 342.651 192.178 344.303C193.312 344.528 194.006 344.626 194.006 344.626C201.625 336.026 190.045 325.852 184.447 322.588C178.849 319.324 179.636 306.133 179.636 306.133L179.456 306.224C177.292 313.385 173.895 328.107 179.48 335.795Z" fill="#1F497D"/>
<path d="M329.65 307.422C330.446 307.955 373.442 337.017 372.425 366.389C372.41 366.771 372.389 367.152 372.361 367.532C372.577 366.922 389.888 313.906 329.65 307.422Z" fill="#1F497D"/>
<path d="M136.601 249.574C137.068 297.721 174.473 291.736 174.473 291.736C174.473 291.736 163.341 281.116 153.69 277.691C142.815 273.836 140.633 259.389 138.009 251.665C137.098 250.412 136.601 249.574 136.601 249.574Z" fill="#1F497D"/>
<path d="M146.021 309.663C146.198 309.398 158.515 290.883 179.385 294.281H179.422C151.146 276.573 146.021 309.663 146.021 309.663Z" fill="#1F497D"/>
<path d="M184.785 279.484C186.823 279.648 188.932 278.625 190.849 275.885C197.373 266.567 194.112 251.34 187.743 244.971C181.466 238.696 183.477 228.802 183.547 228.516C183.316 228.97 171.892 251.733 184.785 279.484Z" fill="#1F497D"/>
<path d="M288.339 351.186C295.485 356.159 313.549 368.896 315.414 376.895C309.353 345.761 286.316 332.859 286.316 332.859C281.949 334.34 281.196 346.222 288.339 351.186Z" fill="#1F497D"/>
<path d="M184.557 370.645H245.414" stroke="white" stroke-width="5.05618" stroke-linecap="round" stroke-linejoin="round"/>
<path d="M240.117 411.551C240.117 411.551 230.366 413.903 227.431 418.285L227.965 419.483" stroke="#DAAA55" stroke-width="5.05618" stroke-linecap="round" stroke-linejoin="round"/>
<path d="M331.742 444.779C330.018 448.792 320.931 448.435 318.923 444.724C316.649 440.534 324.892 425.407 325.322 425.432C325.751 425.456 333.696 440.235 331.742 444.779Z" fill="#DAAA55"/>
<path d="M198.432 469.861V474.365H239.756C239.856 470.093 240.172 465.83 240.703 461.591C241.046 458.727 241.554 455.887 242.227 453.083C243.184 449.255 246.161 445.525 249.885 442.149C255.224 437.301 262.104 433.175 266.773 430.506C268.631 425.301 265.188 420.45 260.983 414.465C257.588 409.638 253.694 404.062 251.661 396.949C250.4 392.531 235.511 405.704 235.511 405.704C235.511 405.704 239.21 421.437 234.953 430.557C225.089 443.761 225.601 455.63 224.617 460.518C224.596 460.634 224.571 460.743 224.544 460.85C223.898 463.617 214.832 466.271 207.565 467.975C202.57 469.142 198.432 469.861 198.432 469.861Z" fill="#773F12"/>
<path d="M314.39 459.856C312.153 470.881 319.607 474.364 319.607 474.364H332.024C337.457 468.879 337.232 465.058 335.531 461.301C333.344 456.468 328.709 451.717 330.574 443.557C333.889 429.055 332.646 406.685 332.646 406.685V395.715L313.174 402.239C313.174 402.239 326.347 435.524 318.561 449.362C316.27 453.442 314.984 456.919 314.39 459.856Z" fill="#773F12"/>
<path d="M297.859 200.172C297.859 200.172 292.198 211.081 284.948 211.496C277.699 211.91 271.906 203.832 278.357 201.967C284.808 200.102 297.859 200.172 297.859 200.172Z" fill="black"/>
<path d="M216.456 185.26C216.456 185.26 218.528 197.479 222.602 200.243C226.676 203.007 240.346 188.849 232.963 187.14C225.579 185.43 216.456 185.26 216.456 185.26Z" fill="black"/>
<path d="M290.049 192.018C290.049 192.018 318.163 227.83 321.472 302.082C325.291 337.479 332.369 337.479 335.758 406.685H314.796C299.31 375.097 291.082 349.034 291.716 322.718C290.284 299.367 273.179 269.613 263.681 249.889C258.12 263.351 252.806 284.789 256.535 305.504C260.265 326.219 266.168 343.719 263.267 365.675C260.366 387.63 255.764 394.874 256.225 406.688H235.503C235.503 406.688 227.541 375.301 224.597 310.474C216.001 287.275 200.496 206.182 224.213 182.154L290.049 192.018Z" fill="#0087DB"/>
<path opacity="0.1" d="M259.27 262.848L254.151 225.857C254.151 225.857 262.951 248.386 263.68 249.885L259.27 262.848Z" fill="black"/>
<path d="M376.776 117.301L385.309 126.443C385.309 126.443 370.325 124.508 369.926 123.35C369.527 122.192 376.776 117.301 376.776 117.301Z" fill="black"/>
<path d="M361.011 121.611L381.013 106.07C381.013 106.07 385.377 103.995 394.049 106.582C402.722 109.169 407.786 109.971 407.786 109.971C407.786 109.971 421.389 99.6099 419.253 103.904C417.117 108.197 416.108 108.295 416.108 108.295L407.832 115.465L387.586 115.617L374.568 128.589L361.011 121.611Z" fill="#773F12"/>
<path d="M285.434 132.21C286.035 132.318 286.624 132.483 287.193 132.703C291.535 134.352 296.005 139.157 300.89 144.792C308.13 153.141 316.279 163.301 326.255 167.686C343.872 175.429 385.32 126.444 385.32 126.444L369.615 114.441L331.67 140.038C331.67 140.038 307.116 100.579 296.018 95.1369C287.376 90.889 274.147 130.241 285.434 132.21Z" fill="#1F497D"/>
<path opacity="0.1" d="M282.808 138.602C287.074 140.449 291.319 145.458 295.938 151.309L298.27 126.684C289.119 126.322 284.816 132.861 282.808 138.602Z" fill="black"/>
<path d="M288.242 92.7902C288.242 92.7902 279.731 85.1721 272.482 83.9532C265.232 82.7343 260.467 81.6525 253.942 83.6972C247.418 85.7419 257.776 104.278 270.202 102.103C282.629 99.9268 288.242 92.7902 288.242 92.7902Z" fill="#1B4068"/>
<path d="M234.704 100.551C234.704 100.551 205.63 136.033 196.918 134.79C188.206 133.546 167.664 121.863 167.664 121.863L154.927 133.68C154.927 133.68 183.355 165.677 198.579 162.565C213.803 159.454 238.498 133.373 238.498 133.373C238.498 133.373 258.317 112.929 234.704 100.551Z" fill="#1B4068"/>
<path d="M216.451 185.258C223.286 197.063 239.561 216.779 250.309 213.993C253.271 213.226 256.22 203.279 256.22 203.279C256.22 203.279 259 211.906 260.569 214.463C264.713 221.215 297.855 200.171 297.855 200.171L279.907 161.209C279.907 161.209 344.134 85.3019 265.935 86.7981C231.062 77.6716 230.316 98.719 232.607 124.669C235.402 156.364 216.451 185.258 216.451 185.258Z" fill="#1F497D"/>
<path d="M242.268 121.15C246.839 128.296 259.299 162.407 259.299 162.407C259.299 162.407 265.394 147.991 275.818 135.213C307.833 95.9831 275.818 86.0796 275.818 86.0796C247.464 68.6432 237.682 114.005 242.268 121.15Z" fill="#773F12"/>
<path d="M290.295 110.999C290.295 110.999 275.394 120.839 260.319 113.9C245.245 106.962 241.308 95.9824 241.308 95.9824C241.308 95.9824 241.667 113.946 250.547 140.25C253.972 150.4 258.165 155.733 259.466 163.576C263.9 148.916 273.682 144.196 275.007 140.25C277.192 133.829 292.779 118.249 290.295 110.999Z" fill="#DAAA55"/>
<path d="M295.372 128.344C290.155 140.838 265.75 150.458 258.915 166.2C258.915 166.2 260.319 144.711 277.503 123.429C286.172 112.69 285.703 98.3988 284.908 90.1133C287.483 91.3109 291.386 95.6989 291.386 95.6989C291.386 95.6989 298.706 120.357 295.372 128.344Z" fill="#0087DB"/>
<path d="M260.32 82.5724C260.32 82.5724 246.693 91.9793 246.279 110.068C245.767 132.447 264.257 150.596 258.916 166.201C252.337 144.261 223.263 103.074 229.293 100.195C245.243 92.5674 246.763 82.0361 260.32 82.5724Z" fill="#0087DB"/>
<path d="M204.059 112.723L224.652 182.304C224.652 182.304 205.729 179.256 195.496 182.304C185.264 185.351 177.012 184.534 177.012 184.534L151.759 114.856L204.059 112.723Z" fill="black"/>
<path d="M151.76 114.855L155.965 127.782L165.921 158.395C165.96 158.51 165.994 158.623 166.031 158.733L175.434 187.642C175.434 187.642 183.686 188.468 193.919 185.408C204.152 182.349 223.078 185.408 223.078 185.408L202.195 114.855H151.76Z" fill="#F77253"/>
<path d="M233.854 166.201L232.144 171.278L244.571 184.482L248.301 177.18L233.854 166.201Z" fill="#0087DB"/>
<path d="M276.728 177.957L278.355 184.481L260.322 191.005V184.481L276.728 177.957Z" fill="#0087DB"/>
<path opacity="0.1" d="M165.92 158.394C160.523 141.795 173.383 125.95 173.383 125.95C173.383 125.95 162.108 123.231 155.965 127.796L165.92 158.394Z" fill="black"/>
<path d="M171.96 121.093C171.96 121.093 175.293 125.472 171.96 128.434C168.626 131.396 160.447 135.695 152.339 135.695C144.23 135.695 142.142 130.152 142.142 130.152C142.142 130.152 139.589 123.336 140.177 121.093C141.091 117.637 147.472 112.865 151.851 112.865C156.23 112.865 171.96 121.093 171.96 121.093Z" fill="#773F12"/>
<path d="M254.715 78.7179C265.347 72.0627 281.379 86.0313 295.832 75.2836C306.369 67.4339 305.888 55.1931 304.827 49.1352C306.75 53.5415 311.227 55.379 311.227 55.379C305.623 49.6532 320.938 13.8267 290.655 2.6372C281.513 -0.742201 275.205 -0.544129 270.878 1.38173C265.698 3.68545 263.333 8.4605 262.257 12.5255C261.651 14.7932 261.35 17.1319 261.364 19.4793C225.748 34.9898 244.083 85.367 254.715 78.7179Z" fill="#4E2316"/>
<path d="M294.333 27.6884C294.333 27.6884 308.131 85.0285 289.034 85.2997C269.937 85.5709 249.237 54.5225 245.019 40.368C237.739 15.9443 279.542 1.54908 294.333 27.6884Z" fill="#773F12"/>
<path d="M281.082 55.7988C281.082 55.7988 278.44 80.5517 281.082 95.9829C275.655 101.114 254.921 100.831 251.256 94.3252C265.94 85.0098 262.025 55.7988 262.025 55.7988H281.082Z" fill="#773F12"/>
<path d="M286.134 19.6169C288.681 28.6886 261.835 22.0547 264.483 57.5399C265.074 65.4323 259.303 45.8324 255.116 52.0031C251.715 57.0158 257.618 63.5826 257.618 63.5826C257.618 63.5826 248.674 86.181 238.615 54.6176C224.479 10.2771 281.252 2.23237 286.134 19.6169Z" fill="#4E2316"/>
<path d="M260.848 22.0384C280.893 23.3091 281.49 34.9587 292.204 33.17C302.918 31.3812 300.788 45.4717 300.788 45.4717C300.788 45.4717 308.135 21.0145 288.578 14.0668C276.542 9.78537 261.512 20.8347 260.848 22.0384Z" fill="#4E2316"/>
<path d="M291.978 55.2995C291.233 55.2995 290.628 54.6951 290.628 53.9495C290.628 53.204 291.233 52.5996 291.978 52.5996C292.724 52.5996 293.328 53.204 293.328 53.9495C293.328 54.6951 292.724 55.2995 291.978 55.2995Z" fill="black"/>
<path d="M298.513 54.9655C297.768 54.9655 297.163 54.3611 297.163 53.6156C297.163 52.87 297.768 52.2656 298.513 52.2656C299.259 52.2656 299.863 52.87 299.863 53.6156C299.863 54.3611 299.259 54.9655 298.513 54.9655Z" fill="black"/>
<path d="M293.018 49.4983C291.675 49.1907 290.287 49.1329 288.923 49.3276C288.247 49.4216 287.584 49.5987 286.951 49.8548C286.322 50.1086 285.728 50.4447 285.187 50.8543C285.153 50.8765 285.129 50.9113 285.121 50.951C285.113 50.9907 285.121 51.0321 285.143 51.0661C285.165 51.1 285.2 51.1237 285.24 51.132C285.279 51.1403 285.321 51.1325 285.355 51.1103C285.898 50.7642 286.484 50.4906 287.098 50.2966C287.709 50.1056 288.341 49.988 288.981 49.9462C289.619 49.904 290.26 49.9214 290.895 49.998C291.52 50.0736 292.137 50.2052 292.738 50.3911H292.759C292.818 50.4099 292.879 50.4171 292.939 50.4123C293 50.4075 293.06 50.3907 293.114 50.363C293.168 50.3352 293.217 50.2971 293.256 50.2507C293.296 50.2043 293.326 50.1505 293.345 50.0925C293.363 50.0345 293.371 49.9733 293.366 49.9125C293.361 49.8517 293.344 49.7924 293.316 49.7381C293.289 49.6838 293.251 49.6354 293.204 49.5959C293.158 49.5563 293.104 49.5262 293.046 49.5074L293.018 49.4983Z" fill="black"/>
<path d="M295.726 50.202C296.127 49.9388 296.553 49.7153 296.997 49.5347C297.447 49.3478 297.914 49.2069 298.393 49.1142C298.87 49.0335 299.356 49.0211 299.837 49.0776C300.318 49.1493 300.781 49.3084 301.205 49.5469C301.239 49.564 301.279 49.5676 301.315 49.5571C301.352 49.5466 301.383 49.5227 301.403 49.4902C301.423 49.4576 301.43 49.4187 301.423 49.3813C301.416 49.3438 301.394 49.3105 301.364 49.2878C300.924 48.9776 300.432 48.7513 299.91 48.6205C299.384 48.5007 298.843 48.4597 298.304 48.4986C297.77 48.5468 297.242 48.6489 296.729 48.8033C296.208 48.9573 295.704 49.1614 295.223 49.4128C295.17 49.4414 295.122 49.4803 295.083 49.5274C295.044 49.5744 295.015 49.6286 294.997 49.6869C294.98 49.7452 294.973 49.8064 294.979 49.8671C294.985 49.9278 295.003 49.9867 295.031 50.0405C295.06 50.0944 295.099 50.142 295.146 50.1808C295.193 50.2196 295.247 50.2487 295.306 50.2665C295.364 50.2844 295.425 50.2905 295.486 50.2847C295.546 50.2788 295.605 50.2611 295.659 50.2325L295.699 50.2081L295.726 50.202Z" fill="black"/>
<path d="M297.285 70.2105C297.285 70.2105 290.124 72.2308 287.592 69.4121C287.604 69.4121 294.046 81.2324 297.285 70.2105Z" fill="white"/>
<path d="M297.093 66.2446C311.043 63.6422 297.537 56.7829 295.59 52.0078L297.093 66.2446Z" fill="#773F12"/>
<path opacity="0.1" d="M277.086 26.786C271.494 19.7347 270.918 5.36385 270.863 1.375C265.683 3.67872 263.318 8.45376 262.243 12.5188C268.337 18.5127 276.888 26.6093 277.086 26.786Z" fill="black"/>
<path d="M257.036 62.6562C252.16 63.674 249.253 68.8483 249.573 75.0738C249.917 81.8265 254.674 87.0708 260.196 86.7874C265.717 86.504 269.913 80.7996 269.566 74.0469C269.218 67.2942 264.462 62.0498 258.94 62.3332" stroke="#DAAA55" stroke-width="2.02247" stroke-miterlimit="10"/>
<path d="M319.605 474.363C319.605 474.363 325.355 464.579 332.032 474.363C337.465 468.878 337.24 465.057 335.539 461.3C330.664 461.909 321.915 462.436 314.388 459.855C312.152 470.88 319.605 474.363 319.605 474.363Z" fill="#DAAA55"/>
<path d="M326.957 464.371C324.975 456.821 323.828 449.076 323.538 441.276C323.233 432.744 324.202 423.849 325.211 417.949" stroke="#DAAA55" stroke-width="5.05618" stroke-linecap="round" stroke-linejoin="round"/>
<path d="M333.914 418.241V419.966C333.914 419.966 313.942 418.802 312.224 411.888C311.112 407.408 315.649 409.264 315.649 409.264L316.015 410.425C316.015 410.425 313.123 409.511 312.888 410.3C311.654 414.502 326.57 418.226 333.914 418.241Z" fill="#DAAA55"/>
<path d="M249.896 442.147C255.235 437.299 262.116 433.173 266.784 430.504C268.643 425.299 265.2 420.448 260.995 414.463C260.001 416.934 258.124 420.737 255.589 422.157C251.959 424.187 246.764 433.916 249.896 442.147Z" fill="#DAAA55"/>
<path d="M207.595 474.362H239.755C239.855 470.091 240.172 465.828 240.703 461.588C236.51 461.509 229.498 461.265 224.605 460.516C224.583 460.631 224.559 460.741 224.531 460.848C223.885 463.615 214.82 466.269 207.552 467.972C207.842 469.95 208 472.324 207.595 474.362Z" fill="#DAAA55"/>
<path d="M227.433 418.285L227.966 419.483C229.511 423.417 232.884 433.308 230.053 438.513C226.43 445.177 224.955 455.882 224.605 460.517" stroke="#DAAA55" stroke-width="5.05618" stroke-linecap="round" stroke-linejoin="round"/>
<path d="M264.094 430.047V474.363" stroke="#DAAA55" stroke-width="5.05618" stroke-linecap="round" stroke-linejoin="round"/>
<path d="M259.746 409.792C259.746 409.792 235.097 419.11 227.445 418.285L227.174 417.474C227.174 417.474 249.949 413.232 258.582 408.756L259.746 409.792Z" fill="#DAAA55"/>
</svg>
