<svg width="14" height="13" viewBox="0 0 14 13" fill="none" xmlns="http://www.w3.org/2000/svg">
<path fill-rule="evenodd" clip-rule="evenodd" d="M6.95246 0C5.13658 0 4.90869 0.00730412 4.19549 0.0371613C3.48368 0.0671466 2.99781 0.170814 2.57267 0.322919C2.13291 0.480022 1.75987 0.690175 1.38822 1.03219C1.0163 1.37407 0.787851 1.71724 0.616515 2.12165C0.450751 2.51287 0.33792 2.95996 0.305882 3.61451C0.273983 4.2706 0.265625 4.48037 0.265625 6.15084C0.265625 7.8213 0.273704 8.0303 0.306021 8.68639C0.338756 9.3412 0.451448 9.78816 0.616655 10.1793C0.787573 10.5838 1.01602 10.927 1.38781 11.2688C1.75931 11.611 2.13235 11.8217 2.57183 11.9788C2.99725 12.1309 3.48326 12.2345 4.19493 12.2645C4.90813 12.2944 5.13588 12.3017 6.95163 12.3017C8.76765 12.3017 8.99484 12.2944 9.70805 12.2645C10.4199 12.2345 10.9063 12.1309 11.3317 11.9788C11.7713 11.8217 12.1438 11.611 12.5153 11.2688C12.8872 10.927 13.1157 10.5838 13.287 10.1794C13.4514 9.78816 13.5642 9.34107 13.5977 8.68652C13.6297 8.03043 13.638 7.8213 13.638 6.15084C13.638 4.48037 13.6297 4.27073 13.5977 3.61464C13.5642 2.95983 13.4514 2.51287 13.287 2.12178C13.1157 1.71724 12.8872 1.37407 12.5153 1.03219C12.1434 0.690047 11.7715 0.479893 11.3313 0.322919C10.905 0.170814 10.4189 0.0671466 9.70707 0.0371613C8.99387 0.00730412 8.76681 0 6.95037 0H6.95246ZM6.35416 1.10896C6.53218 1.1087 6.73082 1.10896 6.95397 1.10896C8.7392 1.10896 8.95079 1.11485 9.65577 1.14433C10.3077 1.17175 10.6615 1.27196 10.8972 1.35615C11.2092 1.46763 11.4317 1.6009 11.6655 1.81618C11.8996 2.03146 12.0444 2.23648 12.1659 2.52352C12.2574 2.74008 12.3665 3.06556 12.3961 3.66527C12.4282 4.31367 12.4352 4.50845 12.4352 6.14995C12.4352 7.79145 12.4282 7.98623 12.3961 8.63463C12.3663 9.23434 12.2574 9.55982 12.1659 9.77638C12.0447 10.0634 11.8996 10.2678 11.6655 10.483C11.4315 10.6982 11.2093 10.8315 10.8972 10.943C10.6618 11.0276 10.3077 11.1275 9.65577 11.1549C8.95093 11.1844 8.7392 11.1908 6.95397 11.1908C5.16861 11.1908 4.95702 11.1844 4.25218 11.1549C3.60027 11.1273 3.24646 11.027 3.01063 10.9429C2.69861 10.8314 2.47573 10.6981 2.24171 10.4828C2.00769 10.2675 1.86283 10.063 1.74136 9.77587C1.64984 9.55931 1.54077 9.23382 1.5111 8.63412C1.47906 7.98572 1.47266 7.79094 1.47266 6.14841C1.47266 4.50588 1.47906 4.31213 1.5111 3.66373C1.54091 3.06403 1.64984 2.73855 1.74136 2.52173C1.86255 2.23469 2.00769 2.02966 2.24171 1.81438C2.47573 1.5991 2.69861 1.46584 3.01063 1.3541C3.24632 1.26952 3.60027 1.16957 4.25218 1.14202C4.86898 1.11639 5.10802 1.1087 6.35416 1.10742V1.10896ZM10.5216 2.12959C10.0787 2.12959 9.71929 2.45981 9.71929 2.86744C9.71929 3.27493 10.0787 3.60554 10.5216 3.60554C10.9646 3.60554 11.3239 3.27493 11.3239 2.86744C11.3239 2.45994 10.9646 2.12933 10.5216 2.12933V2.12959ZM6.95252 2.99207C5.05629 2.99207 3.51888 4.40639 3.51888 6.1508C3.51888 7.8952 5.05629 9.30888 6.95252 9.30888C8.84875 9.30888 10.3856 7.8952 10.3856 6.1508C10.3856 4.40639 8.84861 2.99207 6.95238 2.99207H6.95252ZM6.95144 4.09961C8.18228 4.09961 9.18022 5.0175 9.18022 6.14989C9.18022 7.28216 8.18228 8.20018 6.95144 8.20018C5.72045 8.20018 4.72266 7.28216 4.72266 6.14989C4.72266 5.0175 5.72045 4.09961 6.95144 4.09961Z" fill="white"/>
</svg>
