<svg width="501" height="473" viewBox="0 0 501 473" fill="none" xmlns="http://www.w3.org/2000/svg">
<path opacity="0.1" d="M37.4885 404.234C97.7305 434.129 192.105 283.467 324.498 310.091C345.626 314.339 363.379 322.228 388.569 315.32C441.631 300.771 488.121 231.428 477.484 170.835C462.618 86.1658 343.585 60.6541 323.846 56.4171C222.984 34.8028 87.5579 71.8731 30.2973 179.983C-13.4397 262.56 -8.76512 381.274 37.4885 404.234Z" fill="#DAAA55"/>
<path d="M498.102 114.627H365.791C364.426 114.627 363.32 115.733 363.32 117.097V192.072C363.32 193.437 364.426 194.543 365.791 194.543H498.102C499.467 194.543 500.573 193.437 500.573 192.072V117.097C500.573 115.733 499.467 114.627 498.102 114.627Z" stroke="#0087DB" stroke-width="0.494633" stroke-miterlimit="10"/>
<path d="M490.37 130.277H373.525C372.161 130.277 371.055 131.383 371.055 132.748V186.663C371.055 188.027 372.161 189.133 373.525 189.133H490.37C491.734 189.133 492.84 188.027 492.84 186.663V132.748C492.84 131.383 491.734 130.277 490.37 130.277Z" stroke="#0087DB" stroke-width="0.494633" stroke-miterlimit="10"/>
<path d="M443.595 118.988H373.525C372.161 118.988 371.055 120.094 371.055 121.459V123.693C371.055 125.057 372.161 126.163 373.525 126.163H443.595C444.959 126.163 446.065 125.057 446.065 123.693V121.459C446.065 120.094 444.959 118.988 443.595 118.988Z" stroke="#0087DB" stroke-width="0.494633" stroke-miterlimit="10"/>
<path d="M481.531 137.709H457.283C455.919 137.709 454.812 138.815 454.812 140.179V179.231C454.812 180.595 455.919 181.701 457.283 181.701H481.531C482.895 181.701 484.001 180.595 484.001 179.231V140.179C484.001 138.815 482.895 137.709 481.531 137.709Z" stroke="#0087DB" stroke-width="0.494633" stroke-miterlimit="10"/>
<path d="M479.205 140.016H459.613C458.073 140.016 456.824 141.264 456.824 142.804V144.185C456.824 145.725 458.073 146.973 459.613 146.973H479.205C480.745 146.973 481.993 145.725 481.993 144.185V142.804C481.993 141.264 480.745 140.016 479.205 140.016Z" fill="#0087DB"/>
<path d="M466.619 148.922H459.613C458.073 148.922 456.824 150.17 456.824 151.71V153.091C456.824 154.631 458.073 155.879 459.613 155.879H466.619C468.159 155.879 469.407 154.631 469.407 153.091V151.71C469.407 150.17 468.159 148.922 466.619 148.922Z" fill="#0087DB"/>
<path d="M479.205 157.83H459.613C458.073 157.83 456.824 159.079 456.824 160.619V161.999C456.824 163.539 458.073 164.788 459.613 164.788H479.205C480.745 164.788 481.993 163.539 481.993 161.999V160.619C481.993 159.079 480.745 157.83 479.205 157.83Z" fill="#0087DB"/>
<path d="M466.619 166.74H459.613C458.073 166.74 456.824 167.989 456.824 169.529V170.909C456.824 172.449 458.073 173.698 459.613 173.698H466.619C468.159 173.698 469.407 172.449 469.407 170.909V169.529C469.407 167.989 468.159 166.74 466.619 166.74Z" fill="#0087DB"/>
<path d="M480.173 175.646H458.645C457.64 175.646 456.824 176.462 456.824 177.467V177.576C456.824 178.582 457.64 179.397 458.645 179.397H480.173C481.178 179.397 481.993 178.582 481.993 177.576V177.467C481.993 176.462 481.178 175.646 480.173 175.646Z" fill="#0087DB"/>
<path d="M443.594 137.709H381.287C379.922 137.709 378.816 138.815 378.816 140.179V179.231C378.816 180.595 379.922 181.701 381.287 181.701H443.594C444.959 181.701 446.065 180.595 446.065 179.231V140.179C446.065 138.815 444.959 137.709 443.594 137.709Z" stroke="#0087DB" stroke-width="0.494633" stroke-miterlimit="10"/>
<path d="M412.44 170.576C418.268 170.576 422.993 165.709 422.993 159.705C422.993 153.701 418.268 148.834 412.44 148.834C406.612 148.834 401.887 153.701 401.887 159.705C401.887 165.709 406.612 170.576 412.44 170.576Z" fill="#0087DB"/>
<path d="M416.564 161.704L411.531 164.694C411.178 164.903 410.776 165.016 410.366 165.02C409.956 165.024 409.552 164.919 409.195 164.717C408.839 164.514 408.542 164.221 408.335 163.866C408.129 163.512 408.02 163.109 408.02 162.699V156.72C408.02 156.31 408.129 155.907 408.335 155.552C408.542 155.198 408.839 154.904 409.195 154.702C409.552 154.499 409.956 154.394 410.366 154.399C410.776 154.403 411.178 154.515 411.531 154.725L416.564 157.714C416.909 157.921 417.195 158.213 417.393 158.562C417.592 158.912 417.696 159.307 417.696 159.709C417.696 160.111 417.592 160.506 417.393 160.856C417.195 161.206 416.909 161.498 416.564 161.704Z" fill="white"/>
<path d="M474.806 125.109C476.205 125.109 477.339 123.975 477.339 122.576C477.339 121.177 476.205 120.043 474.806 120.043C473.407 120.043 472.273 121.177 472.273 122.576C472.273 123.975 473.407 125.109 474.806 125.109Z" stroke="#0087DB" stroke-width="0.494633" stroke-miterlimit="10"/>
<path d="M482.556 125.109C483.955 125.109 485.089 123.975 485.089 122.576C485.089 121.177 483.955 120.043 482.556 120.043C481.157 120.043 480.023 121.177 480.023 122.576C480.023 123.975 481.157 125.109 482.556 125.109Z" stroke="#0087DB" stroke-width="0.494633" stroke-miterlimit="10"/>
<path d="M490.306 125.109C491.705 125.109 492.839 123.975 492.839 122.576C492.839 121.177 491.705 120.043 490.306 120.043C488.907 120.043 487.773 121.177 487.773 122.576C487.773 123.975 488.907 125.109 490.306 125.109Z" stroke="#0087DB" stroke-width="0.494633" stroke-miterlimit="10"/>
<path d="M364.535 199.693H499.361" stroke="#0087DB" stroke-width="0.494633" stroke-miterlimit="10"/>
<path d="M382.177 201.592C383.226 201.592 384.077 200.742 384.077 199.693C384.077 198.643 383.226 197.793 382.177 197.793C381.128 197.793 380.277 198.643 380.277 199.693C380.277 200.742 381.128 201.592 382.177 201.592Z" fill="#0087DB"/>
<path opacity="0.1" d="M350.795 254.42H435.986C437.428 254.42 438.81 254.993 439.829 256.012C440.849 257.031 441.422 258.414 441.422 259.855V288.12C441.422 289.562 440.849 290.944 439.829 291.964C438.81 292.983 437.428 293.556 435.986 293.556H383.533L375.703 304.302C375.159 305.049 374.433 305.644 373.594 306.032C372.755 306.42 371.831 306.588 370.91 306.52C369.988 306.452 369.099 306.149 368.327 305.642C367.554 305.135 366.924 304.438 366.495 303.62L361.228 293.564H350.795C349.353 293.564 347.971 292.991 346.951 291.972C345.932 290.953 345.359 289.57 345.359 288.128V259.864C345.358 259.149 345.498 258.441 345.771 257.781C346.043 257.121 346.444 256.52 346.949 256.015C347.453 255.509 348.053 255.108 348.713 254.834C349.373 254.561 350.08 254.42 350.795 254.42Z" fill="#0087DB"/>
<path d="M242.046 335.747C253.827 282.207 274.977 151.754 220.73 1" stroke="#1F497D" stroke-width="1.35888" stroke-linecap="round" stroke-linejoin="round"/>
<path d="M281.898 150.939C281.898 150.939 283.893 186.469 289.804 185.814C295.716 185.159 315.436 194.103 308.94 199.729C302.445 205.355 293.218 199.049 293.218 199.049L297.716 211.714C297.716 211.714 320.14 219.248 310.19 225.287C300.241 231.326 297.284 231.657 297.284 231.657L303.518 254.149L325.356 252.103C325.356 252.103 319.287 227.719 333.338 238.427C347.388 249.135 356.224 250.548 359.836 249.399C363.448 248.249 339.613 224.865 355.536 226.841C371.46 228.817 381.214 243.89 381.214 243.89C381.214 243.89 401.38 234.057 381.551 212.907C364.127 198.484 345.578 197.285 327.016 188.176C308.046 170.002 311.604 160.395 301.741 152.573C291.878 144.751 283.374 143.558 281.898 150.939Z" fill="#1F497D"/>
<path d="M301.496 194.086C301.496 194.086 314.868 154.159 287.32 145.846C287.32 145.846 330.465 153.184 346.551 183.552C362.638 213.92 388.12 193.749 390.579 231.621C390.576 231.621 376.759 192.917 301.496 194.086Z" fill="#0087DB"/>
<path d="M213.203 350.176C213.203 350.176 237.527 212.113 328.129 182.006" stroke="#0087DB" stroke-width="1.35888" stroke-linecap="round" stroke-linejoin="round"/>
<path d="M160.897 159.471C160.897 159.471 153.956 123.439 98.5623 140.409C98.5623 140.409 124.56 154.389 120.19 158.889C115.82 163.39 93.1349 142.213 93.1349 142.213C93.1349 142.213 64.4135 161.33 63.7613 165.238C63.109 169.146 94.1785 175.047 91.8766 184.61C89.5746 194.174 69.1859 169.462 56.1814 171.508C43.1769 173.554 34.9693 198.012 34.9693 198.012C34.9693 198.012 58.5486 194.617 59.671 201.738C60.7935 208.858 31.8221 204.208 31.8221 204.208C31.8221 204.208 4.22863 252.658 4.77762 260.194C5.3266 267.73 44.4271 252.185 62.0355 230.872C79.6439 209.559 141.027 202.567 145.862 194.998C150.697 187.429 170.311 166.871 160.897 159.471ZM21.6142 236.128C25.5848 227.094 55.5156 219.686 55.5156 219.686C57.4398 234.919 17.6435 245.162 21.6142 236.128ZM131.542 195.397C114.657 205.023 98.4237 165.072 98.4237 165.072C113.711 161.398 148.428 185.757 131.542 195.397Z" fill="#1F497D"/>
<path d="M179.828 211.675C179.828 211.675 230.87 197.295 198.072 154.229C198.072 154.229 178.026 194.181 165.435 184.75C152.843 175.319 187.25 160.056 186.013 154.224C184.777 148.392 156.314 144.937 119.817 169.087C119.817 169.087 131.37 202.171 117.278 199.312C103.187 196.453 116.246 172.596 116.246 172.596C116.246 172.596 43.3144 235.376 37.8164 250.849C37.8164 250.849 108.818 201.508 179.828 211.675Z" fill="#0087DB"/>
<path d="M228.851 355.786C228.851 355.786 247.875 216.671 153.859 202.914" stroke="#0087DB" stroke-width="1.35888" stroke-linecap="round" stroke-linejoin="round"/>
<path d="M268.448 341.874C195.033 233.032 221.159 117.443 274.171 89.4746" stroke="#0087DB" stroke-width="1.35888" stroke-linecap="round" stroke-linejoin="round"/>
<path d="M237.488 456.471C237.488 456.471 223.502 453.815 212.194 451.63C205.856 450.407 200.358 449.331 198.635 448.953C198.635 448.953 202.855 446.855 209.761 443.436C220.665 438.041 238.262 429.355 256.49 420.452C276.757 410.554 315.151 393.166 338.477 383.357C336.26 383.357 333.998 383.393 332.009 383.284C287.182 383.615 271.52 393.818 245.021 393.649C219.898 393.492 159.82 375.326 131.851 383.925C118.629 388.002 108.272 396.797 106.445 413.927C108.307 424.863 123.98 433.516 144.222 440.21C145.021 440.477 145.828 440.738 146.644 440.996C167.323 447.562 220.336 456.329 223.557 456.759C227.462 457.278 231.011 457.718 234.099 458.085C242.073 459.028 246.976 459.468 246.976 459.468C246.976 459.468 255.672 458.058 268.489 455.547C273.697 454.525 279.581 453.318 285.829 451.951C301.546 448.513 319.583 444.042 334.999 438.873C321.701 442.912 289.851 448.353 266.147 452.109C249.905 454.685 237.488 456.471 237.488 456.471Z" fill="#1F497D"/>
<path d="M369.369 420.363C364.858 427.068 351.432 433.365 335.027 438.865H335.003C321.705 442.904 289.855 448.345 266.151 452.101C266.197 451.783 266.385 441.92 265.368 437.697C263.801 431.331 260.76 425.421 256.492 420.444C276.759 410.546 315.152 393.158 338.479 383.35C340.762 383.35 343.001 383.371 344.855 383.621C370.565 386.877 382.95 400.27 369.369 420.363Z" fill="#0087DB"/>
<path d="M266.15 452.108C249.398 454.461 214.95 461.313 214.95 461.313C214.95 461.313 210.634 446.305 209.762 443.435C220.665 438.041 238.263 429.355 256.491 420.451C260.759 425.428 263.799 431.337 265.367 437.704C266.381 441.927 266.196 451.795 266.15 452.108Z" fill="#30201A"/>
<path d="M142.794 453.054C147.752 467.146 166.683 472.954 186.787 468.567C201.843 465.282 227.969 458.783 227.969 458.783C214.361 455.438 224.2 436.305 224.2 436.305C221.955 431.956 218.973 431.793 216.59 431.062C207.453 428.266 202.971 432.785 194.791 434.052C184.463 435.653 156.364 419.629 145.159 438.514C141.829 444.135 141.357 448.975 142.794 453.054Z" fill="black"/>
<path d="M142.794 453.054C140.954 422.631 179.316 437.258 191.945 438.519C204.574 439.78 216.592 431.064 216.592 431.064C207.455 428.268 202.974 432.787 194.793 434.054C184.466 435.654 156.367 419.631 145.161 438.516C141.829 444.134 141.357 448.974 142.794 453.054Z" fill="#999999"/>
<path d="M218.086 456.057C178.181 450.45 110.101 437.484 106.09 413.931C107.916 396.81 118.274 387.993 131.496 383.93C142.223 382.664 151.085 385.422 162.304 389.385C176.39 394.361 204.266 410.89 228.346 422.636C223.995 427.425 215.638 439.117 218.086 456.057Z" fill="#0087DB"/>
<path d="M273.612 445.178C270.101 456.253 269.171 464.311 269.171 464.311C269.171 464.311 234.849 458.411 218.096 456.057C215.65 439.118 224.005 427.426 228.348 422.629C247.372 431.918 273.612 445.178 273.612 445.178Z" fill="#422D23"/>
<path d="M341.314 456.052C336.357 470.144 317.422 475.952 297.322 471.565C282.265 468.28 256.137 462.105 256.137 462.105C269.747 458.757 259.268 437.936 259.268 437.936C262.434 436.033 265.135 434.791 267.516 434.06C276.653 431.264 281.135 435.783 289.315 437.05C299.643 438.651 327.742 422.627 338.947 441.512C342.279 447.133 342.752 451.973 341.314 456.052Z" fill="black"/>
<path d="M341.314 456.052C342.92 425.314 304.793 440.256 292.163 441.517C279.534 442.778 267.516 434.062 267.516 434.062C276.653 431.266 281.134 435.785 289.315 437.052C299.642 438.653 327.741 422.629 338.947 441.514C342.279 447.132 342.752 451.972 341.314 456.052Z" fill="#999999"/>
<path d="M185.309 259.875C185.309 259.875 274.965 252.876 291.573 255.842C291.573 255.842 278.033 274.594 239.737 273.156C201.441 271.719 185.309 259.875 185.309 259.875Z" fill="black"/>
<path d="M166.801 288.099C166.801 288.099 195.468 333.589 252.788 318.046C310.109 302.503 312.201 278.611 312.201 278.611L166.801 288.099Z" fill="black"/>
<path d="M282.229 329.143C278.933 337.775 277.848 346.412 277.96 354.304C278.231 373.274 285.401 387.953 285.401 387.953C285.401 387.953 276.796 406.852 242.46 406.809C208.616 406.768 200.259 387.953 200.259 387.953C204.781 383.979 209.581 372.961 209.284 360.202C209.099 349.654 205.236 339.503 198.362 331.502C195.538 328.197 193.11 324.573 191.127 320.704C182.308 303.466 185.615 287.385 185.615 287.385C185.615 287.385 276.873 264.854 287.309 271.969C295.253 277.386 296.737 288.295 291.032 306.586C289.241 312.325 286.741 318.794 283.512 326.047C283.055 327.071 282.631 328.098 282.24 329.127C282.238 329.133 282.234 329.138 282.229 329.143Z" fill="#F77253"/>
<path opacity="0.1" d="M209.279 360.208C209.093 349.661 205.23 339.509 198.356 331.508C195.532 328.203 193.104 324.579 191.121 320.71C193.382 317.963 196.451 315.324 200.492 312.889L203.93 318.226C203.93 318.226 210.985 346.225 209.279 360.208Z" fill="black"/>
<path d="M135.277 354.334C135.277 354.334 140.02 377.598 155.734 383.142C172.978 374.437 144.042 353.445 135.277 354.334Z" fill="black"/>
<path d="M149.514 358.386C148.118 358.048 146.703 357.791 145.277 357.617C144.268 357.492 143.242 357.401 142.201 357.345C141.073 357.327 139.946 357.388 138.828 357.527C138.013 357.617 137.116 357.736 136.197 357.872C130.585 358.687 123.88 360.19 123.88 360.19C123.88 360.19 116.23 341.511 116.409 336.888C116.501 334.442 114.811 334.086 113.27 335.236C113.494 334.503 113.534 333.726 113.384 332.975L96.708 336.888C96.708 336.888 85.633 353.265 90.4326 360.207C95.2322 367.148 123.733 387.077 155.719 383.155C174.713 375.76 165.56 362.256 149.514 358.386ZM110.892 341.536C111.436 347.941 110.862 351.32 110.862 351.32C110.862 351.32 100.912 352.151 97.9853 354.309C95.7268 352.162 99.8633 343.484 99.8633 343.484C99.8633 343.484 107.389 341.777 111.248 338.231C110.912 339.294 110.791 340.414 110.892 341.525V341.536Z" fill="#422D23"/>
<path opacity="0.1" d="M149.513 358.386C146.523 363.162 141.547 367.755 140.482 369.388C138.821 371.926 123.879 360.205 123.879 360.205C123.879 360.205 137.568 357.158 142.199 357.359C144.665 357.466 147.114 357.81 149.513 358.386Z" fill="black"/>
<path d="M203.93 318.223C201.832 321.827 183.672 364.297 177.959 373.902C171.295 385.11 155.722 383.142 155.722 383.142C155.82 371.896 135.266 354.334 135.266 354.334L151.632 350.716C156.5 343.501 177.959 284.946 177.959 284.946C195.896 261.03 204.786 274.075 209.61 287.392C212.189 294.478 211.877 304.585 203.93 318.223Z" fill="#F77253"/>
<path d="M348.462 354.305C348.462 354.305 350.514 381.643 327.641 383.056C327.641 383.056 321.102 357.686 348.462 354.305Z" fill="black"/>
<path d="M385.9 336.089L369.224 332.176C369.167 333.046 369.321 333.917 369.675 334.714C368.045 333.247 366.099 333.467 366.199 336.089C366.379 340.71 358.728 359.391 358.728 359.391C358.728 359.391 351.686 358.405 345.971 357.913C344.075 357.714 342.17 357.623 340.264 357.641C337.898 357.743 335.545 358.049 333.233 358.557C317.043 362.134 321.275 379.772 326.879 382.329C342.612 389.523 387.422 366.235 392.165 359.381C396.975 352.453 385.9 336.089 385.9 336.089ZM385.022 353.483C380.56 351.252 371.749 350.494 371.749 350.494C371.749 350.494 371.181 347.115 371.716 340.71C371.841 339.416 371.654 338.112 371.173 336.905C374.92 340.851 382.75 342.675 382.75 342.675C382.75 342.675 387.281 351.336 385.022 353.486V353.483Z" fill="#422D23"/>
<path opacity="0.1" d="M358.728 359.392C358.728 359.392 348.968 371.03 347.664 370.845C347.06 370.758 342.823 368.143 338.725 364.499C336.684 362.73 334.845 360.741 333.24 358.569C331.172 355.658 330.023 352.614 330.977 349.904C330.977 349.904 347.462 356.699 345.97 357.914C351.686 358.405 358.728 359.392 358.728 359.392Z" fill="black"/>
<path d="M348.46 354.305C348.46 354.305 347.463 356.699 345.971 357.914C343.435 359.972 341.016 362.171 338.725 364.499C333.806 369.519 328.669 376.145 327.699 382.637C327.677 382.777 327.658 382.915 327.642 383.053C327.642 383.053 311.314 384.298 304.65 373.09C297.366 360.841 286.194 336.329 278.679 317.411C269.246 293.666 267.495 238.767 300.345 282.528C300.345 282.528 324.101 339.708 330.977 349.905L348.46 354.305Z" fill="#F77253"/>
<path d="M289.199 258.807C289.199 258.807 282.556 246.118 240.822 248.254C199.088 250.39 189.59 260.18 189.59 270.583C189.59 280.987 269.511 290.472 289.199 258.807Z" fill="#422D23"/>
<path opacity="0.1" d="M301.89 279.315C301.89 279.315 299.528 282.962 294.468 287.74C286.217 295.534 270.788 306.332 246.725 309.194C242.618 309.679 238.486 309.919 234.351 309.914C224.871 309.914 192.152 305.878 185.703 304.046C180.371 302.566 175.179 300.62 170.187 298.233C170.826 296.059 171.391 294.113 171.861 292.471C168.266 289.911 166.801 288.101 166.801 288.101C166.801 288.101 180.409 273.205 184.306 263.494C196.166 266.737 217.976 271.197 241.651 268.631C254.968 268.237 269.32 265.886 283.121 259.967C286.478 265.699 293.862 276.871 301.89 279.315Z" fill="black"/>
<path d="M312.202 278.611C312.202 278.611 306.47 287.468 293.721 295.651C283.122 302.446 267.704 308.794 246.704 309.191C246.024 309.204 245.339 309.21 244.646 309.21C230.786 309.21 219.197 308.123 209.568 306.419C199.36 304.625 191.359 302.158 185.163 299.625C179.086 297.124 174.767 294.556 171.846 292.477C168.25 289.917 166.785 288.107 166.785 288.107C166.785 288.107 180.393 273.211 184.29 263.5C184.783 262.345 185.118 261.128 185.285 259.883C185.285 259.883 210.68 269.547 241.638 268.637C254.955 268.243 269.307 265.892 283.108 259.972C285.949 258.755 288.758 257.381 291.533 255.85C291.533 255.85 301.296 275.293 312.202 278.611Z" fill="#DAAA55"/>
<path d="M314.001 394.105L294.003 409.724L245.535 424.713L204.73 409.585L203.961 407.101L277.528 387.074L314.001 394.105Z" fill="black"/>
<path d="M317.566 399.712L244.765 422.226L203.961 407.102L276.759 384.588L317.566 399.712Z" fill="#999999"/>
<path d="M306.482 400.435L247.89 418.554L221.734 408.86L280.329 390.74L306.482 400.435Z" fill="black"/>
<path d="M331.548 394.894L245.5 424.73L226.02 361.735L313.885 335.527L331.548 394.894Z" fill="black"/>
<path d="M315.365 334.134L227.762 361.219L247.238 424.215L334.842 397.131L315.365 334.134Z" fill="white"/>
<path d="M253.226 249.576H225.48L226.839 219.572L248.062 216.49L248.546 219.597L253.226 249.576Z" fill="#422D23"/>
<path opacity="0.1" d="M248.557 219.597C244.806 230.025 249.467 243.624 225.48 249.574L226.839 219.569L248.062 216.49L248.557 219.597Z" fill="black"/>
<path d="M254.041 222.959C266.542 230.696 269.315 237.347 269.516 241.983C269.912 251.096 260.591 255.371 262.224 264.22C263.773 272.61 273.095 273.893 272.551 280.407C272.054 286.226 264.461 286.979 261.879 295.529C259.952 301.902 262.729 306.264 261.335 306.913C258.734 308.134 244.251 294.906 243.547 278.627C242.909 263.867 254.095 257.972 252.263 243.584C251.212 235.314 246.493 229.18 243.191 225.617L254.041 222.959Z" fill="black"/>
<path d="M215.955 192.741C211.19 219.435 226.483 242.857 238.754 243.109C249.821 243.335 263.782 229.594 260.898 196.5C257.949 162.683 221.594 161.136 215.955 192.741Z" fill="#422D23"/>
<path d="M257.286 208.351C257.286 208.351 267.513 201.793 266.711 211.723C265.909 221.654 257.919 226.185 255.188 220.42" fill="#422D23"/>
<path d="M244.726 170.83C238.323 163.992 215.724 161.829 209.544 184.449C206.011 202.772 217.458 217.706 217.458 217.706C217.458 217.706 214.67 201.867 226.133 196.034C237.597 190.202 249.191 182.541 244.726 170.83Z" fill="black"/>
<path d="M235.988 181.377C235.988 181.377 259.38 187.269 261.264 207.329C261.264 207.329 276.233 193.944 263.307 176.846C253.882 164.388 239.924 165.443 235.988 181.377Z" fill="black"/>
<path d="M217.222 211.775C217.222 211.775 209.014 204.897 209.158 213.969C209.289 222.228 214.547 225.503 220.407 224.209" fill="#422D23"/>
<path d="M235.834 207.933C235.834 207.933 229.119 203.737 222.789 209.292" stroke="black" stroke-width="0.543553" stroke-linecap="round" stroke-linejoin="round"/>
<path d="M243.465 209.279C243.465 209.279 248.604 203.903 255.64 208.331" stroke="black" stroke-width="0.543553" stroke-linecap="round" stroke-linejoin="round"/>
<path d="M225.293 213.298C225.293 213.298 229.565 216.967 233.321 211.961" stroke="black" stroke-width="0.491915" stroke-linecap="round" stroke-linejoin="round"/>
<path d="M245.707 212.088C245.707 212.088 249.142 216.298 253.233 212.444" stroke="black" stroke-width="0.464738" stroke-linecap="round" stroke-linejoin="round"/>
<path d="M238.499 214.164C238.499 214.164 232.762 224.66 241.116 224.492" stroke="black" stroke-width="0.543553" stroke-linecap="round" stroke-linejoin="round"/>
<path d="M234.145 230.234C234.145 230.234 240.311 235.572 246.538 229.346" stroke="black" stroke-width="0.543553" stroke-linecap="round" stroke-linejoin="round"/>
</svg>
