<svg width="17" height="13" viewBox="0 0 17 13" fill="none" xmlns="http://www.w3.org/2000/svg">
<path fill-rule="evenodd" clip-rule="evenodd" d="M8.58378 3.27244L8.61886 3.80452L8.03425 3.73937C5.90625 3.48962 4.04717 2.64263 2.46871 1.22012L1.69702 0.514299L1.49825 1.03552C1.07733 2.19742 1.34625 3.42447 2.22318 4.24974C2.69087 4.70581 2.58564 4.77096 1.77887 4.49949C1.49825 4.41262 1.25272 4.34747 1.22933 4.38004C1.14749 4.45605 1.4281 5.44421 1.65025 5.83513C1.95425 6.37807 2.57394 6.91015 3.2521 7.22506L3.82502 7.47481L3.14687 7.48567C2.4921 7.48567 2.46871 7.49653 2.53887 7.72456C2.77271 8.43039 3.6964 9.17965 4.72533 9.50541L5.45025 9.73345L4.81886 10.0809C3.88348 10.5804 2.78441 10.8628 1.68533 10.8845C1.15918 10.8953 0.726562 10.9388 0.726562 10.9714C0.726562 11.0799 2.15302 11.688 2.98318 11.9269C5.47363 12.6328 8.43178 12.3287 10.6533 11.1234C12.2318 10.2655 13.8102 8.56069 14.5469 6.91015C14.9444 6.03058 15.3419 4.42348 15.3419 3.6525C15.3419 3.15299 15.377 3.08784 16.0318 2.49061C16.4176 2.14312 16.7801 1.76306 16.8502 1.65448C16.9672 1.44816 16.9555 1.44816 16.3592 1.63276C15.3653 1.95852 15.225 1.91509 15.7161 1.42644C16.0785 1.07896 16.5112 0.449146 16.5112 0.264546C16.5112 0.231969 16.3358 0.286263 16.137 0.383993C15.9265 0.492581 15.4589 0.655463 15.1081 0.753193L14.4767 0.937793L13.9038 0.579452C13.5881 0.383993 13.1438 0.166816 12.9099 0.101663C12.3136 -0.0503605 11.4016 -0.0286429 10.8638 0.145098C9.40224 0.633746 8.47855 1.89337 8.58378 3.27244Z" fill="white"/>
</svg>
