<svg width="19" height="13" viewBox="0 0 19 13" fill="none" xmlns="http://www.w3.org/2000/svg">
<path fill-rule="evenodd" clip-rule="evenodd" d="M18.2164 1.92095C18.0024 1.16479 17.3719 0.569349 16.5714 0.367265C15.1206 0 9.30258 0 9.30258 0C9.30258 0 3.48456 0 2.03367 0.367265C1.23312 0.569349 0.602659 1.16479 0.3887 1.92095C0 3.29139 0 6.15084 0 6.15084C0 6.15084 0 9.01018 0.3887 10.3807C0.602659 11.1369 1.23312 11.7323 2.03367 11.9345C3.48456 12.3017 9.30258 12.3017 9.30258 12.3017C9.30258 12.3017 15.1206 12.3017 16.5714 11.9345C17.3719 11.7323 18.0024 11.1369 18.2164 10.3807C18.6052 9.01018 18.6052 6.15084 18.6052 6.15084C18.6052 6.15084 18.6052 3.29139 18.2164 1.92095Z" fill="white"/>
<path fill-rule="evenodd" clip-rule="evenodd" d="M7.55859 9.09271V3.74414L12.2098 6.41853L7.55859 9.09271Z" fill="#E73329"/>
</svg>
